<?xml version="1.0" encoding="UTF-8" standalone="no"?>
<svg
   xmlns:dc="http://purl.org/dc/elements/1.1/"
   xmlns:cc="http://creativecommons.org/ns#"
   xmlns:rdf="http://www.w3.org/1999/02/22-rdf-syntax-ns#"
   xmlns:svg="http://www.w3.org/2000/svg"
   xmlns="http://www.w3.org/2000/svg"
   id="svg200"
   width="0.5in"
   x="0in"
   height="0.5in"
   y="0in"
   viewBox="0 0 12.700003 12.7"
   version="1.2">
  <metadata
     id="metadata206">
    <rdf:RDF>
      <cc:Work
         rdf:about="">
        <dc:format>image/svg+xml</dc:format>
        <dc:type
           rdf:resource="http://purl.org/dc/dcmitype/StillImage" />
        <dc:title></dc:title>
      </cc:Work>
    </rdf:RDF>
  </metadata>
  <defs
     id="defs204" />
  <desc
     id="desc2">
    <referenceFile>sparkfun-digitalic_atmega168_schematic.svg</referenceFile>
  </desc>
  <path
     id="rect4"
     d="M 0.63500029,0.63500327 H 12.065001 V 9.5250046 H 0.63500029 Z"
     style="fill:#ffffff;stroke:none;stroke-width:0" />
  <path
     id="line7"
     d="M 0.63500088,0.63499993 H 12.065001"
     style="stroke:#000000;stroke-width:0.23812503;stroke-linecap:round;stroke-miterlimit:4;stroke-dasharray:none" />
  <path
     id="line13"
     d="M 0.63500029,9.5250034 V 0.63499993"
     style="stroke:#000000;stroke-width:0.26864126;stroke-linecap:round;stroke-miterlimit:4;stroke-dasharray:none" />
  <g
     id="text29"
     style="font-size:0.881944px;font-family:'Droid Sans';text-anchor:middle;fill:#8c8c8c;stroke:none;stroke-width:0" />
  <g
     id="text1438"
     style="font-style:normal;font-variant:normal;font-weight:normal;font-stretch:normal;font-size:1.49930573px;line-height:1.25;font-family:'Droid Sans';-inkscape-font-specification:'Droid Sans, Normal';font-variant-ligatures:normal;font-variant-caps:normal;font-variant-numeric:normal;font-feature-settings:normal;text-align:start;letter-spacing:0px;word-spacing:0px;writing-mode:lr-tb;text-anchor:start;fill:#000000;fill-opacity:1;stroke:none;stroke-width:0.26458335"
     aria-label="ADT7410">
    <path
       id="path839"
       style=""
       d="M 4.1705904,3.0762539 4.0534571,2.7446203 H 3.654472 L 3.5358745,3.0762539 H 3.398243 L 3.7913715,2.0015562 h 0.124454 L 4.3096861,3.0762539 Z M 4.0102642,2.6238267 3.901916,2.3134235 q -0.00439,-0.013177 -0.010981,-0.032212 -0.00586,-0.019034 -0.012445,-0.040997 -0.00659,-0.021962 -0.013177,-0.045389 -0.00659,-0.024159 -0.012445,-0.046853 -0.00512,0.022695 -0.011713,0.046853 -0.00659,0.024159 -0.013178,0.046853 -0.00659,0.021962 -0.013177,0.040997 -0.00586,0.018302 -0.010249,0.030747 l -0.106152,0.3104032 z" />
    <path
       id="path841"
       style=""
       d="m 5.2430918,2.5308522 q 0,0.1354353 -0.03514,0.2379269 -0.03514,0.1017595 -0.1017595,0.1705753 -0.066619,0.068084 -0.1639866,0.1024916 -0.096635,0.034408 -0.2196248,0.034408 H 4.4546386 V 2.0059487 h 0.2979577 q 0.1120087,0 0.2027869,0.033676 0.090778,0.033676 0.1544695,0.1002954 0.063691,0.065887 0.098099,0.1639866 0.03514,0.098099 0.03514,0.2269457 z m -0.1442203,0.00439 q 0,-0.1068841 -0.024159,-0.1844848 Q 5.050554,2.2724269 5.0044328,2.2219132 4.9583116,2.1713995 4.8909599,2.1472407 4.8236083,2.1223499 4.7379546,2.1223499 H 4.590806 v 0.8367707 h 0.1185974 q 0.1932699,0 0.291369,-0.1068841 0.098099,-0.1068841 0.098099,-0.3169919 z" />
    <path
       id="path843"
       style=""
       d="M 5.7474969,3.0762539 H 5.6105974 V 2.1260103 H 5.3045868 V 2.0059487 H 6.0527755 V 2.1260103 H 5.7474969 Z" />
    <path
       id="path845"
       style=""
       d="M 6.2745966,3.0762539 6.6867592,2.1274745 H 6.1347687 V 2.0059487 h 0.6881579 v 0.106152 l -0.406306,0.9641532 z" />
    <path
       id="path847"
       style=""
       d="M 7.6904448,2.8361307 H 7.5345112 V 3.0762539 H 7.4056646 V 2.8361307 H 6.9115086 V 2.7197295 L 7.3968796,2.0000921 H 7.5345112 V 2.714605 H 7.6904448 Z M 7.4056646,2.714605 V 2.4539834 q 0,-0.040997 7.321e-4,-0.085654 0.00146,-0.045389 0.00293,-0.08785 0.00146,-0.043193 0.00293,-0.080529 0.0022,-0.037336 0.00293,-0.062227 h -0.00659 q -0.00512,0.014642 -0.013178,0.032944 -0.00732,0.01757 -0.016838,0.035872 -0.00878,0.01757 -0.018302,0.034408 -0.00952,0.016838 -0.01757,0.028551 L 7.0418194,2.714605 Z" />
    <path
       id="path849"
       style=""
       d="M 8.2409709,3.0762539 H 8.1121243 V 2.4078622 q 0,-0.031479 0,-0.067352 7.321e-4,-0.035872 0.00146,-0.071012 0.00146,-0.035872 0.0022,-0.068084 0.00146,-0.032944 0.0022,-0.057835 -0.012445,0.013177 -0.021962,0.022695 -0.00952,0.00952 -0.019766,0.018302 -0.00952,0.00878 -0.020498,0.019034 -0.010981,0.00952 -0.026355,0.022695 l -0.1083483,0.088582 -0.07028,-0.090046 0.2803877,-0.2188928 h 0.1098125 z" />
    <path
       id="path851"
       style=""
       d="m 9.3017589,2.5396371 q 0,0.1295787 -0.019034,0.2320703 -0.018302,0.1024916 -0.060031,0.1735037 -0.040997,0.071012 -0.1061521,0.1083482 -0.065155,0.037336 -0.1581299,0.037336 -0.086386,0 -0.150809,-0.037336 Q 8.7439118,3.0162231 8.701451,2.9452111 8.6597222,2.874199 8.6384918,2.7717074 8.6179935,2.6692158 8.6179935,2.5396371 q 0,-0.1295786 0.018302,-0.2320702 0.019034,-0.1024916 0.059299,-0.1727716 0.040997,-0.071012 0.1054199,-0.1083482 0.065155,-0.037336 0.1573978,-0.037336 0.087118,0 0.1515412,0.037336 0.064423,0.036604 0.1068841,0.1076161 0.042461,0.07028 0.063691,0.1727716 0.02123,0.1024916 0.02123,0.2328023 z m -0.5483301,0 q 0,0.1098125 0.010981,0.1918058 0.010981,0.081993 0.03514,0.1368995 0.024159,0.054174 0.062959,0.081993 0.039532,0.027087 0.095903,0.027087 0.05637,0 0.095903,-0.027087 0.039532,-0.027087 0.064423,-0.081261 0.025623,-0.054174 0.036604,-0.1361674 0.011713,-0.082725 0.011713,-0.1932699 0,-0.1098124 -0.011713,-0.1918057 -0.010981,-0.081993 -0.036604,-0.1361674 -0.024891,-0.054174 -0.064423,-0.081261 -0.039532,-0.027087 -0.095903,-0.027087 -0.05637,0 -0.095903,0.027087 -0.0388,0.027087 -0.062959,0.081261 -0.024159,0.054174 -0.03514,0.1361674 -0.010981,0.081993 -0.010981,0.1918057 z" />
  </g>
  <path
     id="connector1pin"
     d="M 2.5400008,9.5250018 V 12.700003"
     style="fill:none;stroke:#787878;stroke-width:0.17462502;stroke-linecap:butt;stroke-linejoin:miter;stroke-miterlimit:4;stroke-dasharray:none;stroke-opacity:1" />
  <path
     style="fill:none;stroke:#787878;stroke-width:0.17462502;stroke-linecap:butt;stroke-linejoin:miter;stroke-miterlimit:4;stroke-dasharray:none;stroke-opacity:1"
     d="M 5.0800011,9.5250018 V 12.700003"
     id="connector2pin" />
  <path
     id="connector3pin"
     d="M 7.6200013,9.5250018 V 12.700003"
     style="fill:none;stroke:#787878;stroke-width:0.17462502;stroke-linecap:butt;stroke-linejoin:miter;stroke-miterlimit:4;stroke-dasharray:none;stroke-opacity:1" />
  <path
     style="fill:none;stroke:#787878;stroke-width:0.17462502;stroke-linecap:butt;stroke-linejoin:miter;stroke-miterlimit:4;stroke-dasharray:none;stroke-opacity:1"
     d="M 10.160001,9.5250018 V 12.700003"
     id="connector4pin" />
  <g
     id="text933"
     style="font-style:normal;font-variant:normal;font-weight:normal;font-stretch:normal;font-size:1.49930573px;line-height:1.25;font-family:'Droid Sans';-inkscape-font-specification:'Droid Sans, Normal';font-variant-ligatures:normal;font-variant-caps:normal;font-variant-numeric:normal;font-feature-settings:normal;text-align:start;letter-spacing:0px;word-spacing:0px;writing-mode:lr-tb;text-anchor:start;fill:#000000;fill-opacity:1;stroke:none;stroke-width:0.26458335"
     aria-label="Module">
    <path
       id="path854"
       style=""
       d="M 4.3389693,5.0072422 4.0146566,4.0701761 h -0.00586 q 0.00439,0.054174 0.00732,0.1076162 0.00293,0.046121 0.00439,0.097367 0.0022,0.050514 0.0022,0.092242 V 5.0072422 H 3.8967912 V 3.936937 h 0.2020549 l 0.3016181,0.8726428 h 0.00439 L 4.7079391,3.936937 H 4.9099939 V 5.0072422 H 4.7738265 V 4.3578847 q 0,-0.038068 0.00146,-0.087118 0.00146,-0.049049 0.00366,-0.093707 0.00293,-0.051978 0.00512,-0.1054199 H 4.778219 L 4.450978,5.0072422 Z" />
    <path
       id="path856"
       style=""
       d="m 5.8397392,4.6038645 q 0,0.1002954 -0.024891,0.1786283 -0.024159,0.077601 -0.07028,0.1310428 -0.045389,0.05271 -0.1105445,0.080529 -0.065155,0.027819 -0.1464166,0.027819 -0.075404,0 -0.1390957,-0.027819 Q 5.2848204,4.9662456 5.2379671,4.9135356 5.1918459,4.8600935 5.1654909,4.7824928 5.139868,4.7041599 5.139868,4.6038645 q 0,-0.099563 0.024159,-0.1764319 0.024891,-0.077601 0.07028,-0.1303108 0.045389,-0.053442 0.1105445,-0.080529 0.065887,-0.027819 0.1471486,-0.027819 0.075405,0 0.1390958,0.027819 0.063691,0.027087 0.1098124,0.080529 0.046853,0.05271 0.072476,0.1303108 0.026355,0.076869 0.026355,0.1764319 z m -0.5622396,0 q 0,0.1530054 0.049782,0.2306061 0.050514,0.076869 0.1632545,0.076869 0.1127407,0 0.1617903,-0.076869 0.049782,-0.077601 0.049782,-0.2306061 0,-0.1530053 -0.050514,-0.2284098 -0.049782,-0.076137 -0.1625224,-0.076137 -0.1127408,0 -0.1625224,0.076137 -0.04905,0.075405 -0.04905,0.2284098 z" />
    <path
       id="path858"
       style=""
       d="m 6.5476633,4.899626 h -0.00586 q -0.016106,0.024891 -0.038068,0.047585 -0.02123,0.021963 -0.049782,0.0388 -0.027819,0.016838 -0.062959,0.026355 -0.03514,0.00952 -0.079065,0.00952 -0.068084,0 -0.1244541,-0.026355 -0.05637,-0.026355 -0.096635,-0.078333 -0.040265,-0.05271 -0.062227,-0.1303107 -0.021962,-0.077601 -0.021962,-0.1800924 0,-0.1032237 0.021962,-0.1808245 0.021962,-0.078333 0.062227,-0.1310428 0.040265,-0.05271 0.096635,-0.079065 0.05637,-0.027087 0.1244541,-0.027087 0.043193,0 0.078333,0.00952 0.03514,0.00952 0.062959,0.025623 0.028551,0.016106 0.050514,0.037336 0.021963,0.02123 0.038068,0.044657 h 0.00878 q -0.0022,-0.024891 -0.00439,-0.047585 -0.00146,-0.019034 -0.00293,-0.0388 -0.00146,-0.020498 -0.00146,-0.032212 V 3.8681213 H 6.6750458 V 5.0072422 H 6.5674296 Z m -0.2101077,0.011713 q 0.055638,0 0.093707,-0.016838 0.0388,-0.016838 0.062227,-0.051246 0.024159,-0.034408 0.03514,-0.085654 0.011713,-0.051978 0.013178,-0.1207936 v -0.030015 q 0,-0.07394 -0.010249,-0.1310429 -0.00952,-0.057834 -0.033676,-0.096635 -0.023427,-0.039532 -0.062959,-0.059299 -0.039532,-0.020498 -0.098831,-0.020498 -0.098831,0 -0.1456845,0.079797 -0.046121,0.079797 -0.046121,0.2291419 0,0.1530054 0.046121,0.2284099 0.046853,0.074672 0.1471487,0.074672 z" />
    <path
       id="path860"
       style=""
       d="M 7.4503216,5.0072422 7.4305554,4.899626 h -0.00732 q -0.018302,0.03148 -0.043925,0.054906 -0.024891,0.022695 -0.054906,0.038068 -0.030015,0.014642 -0.063691,0.021962 -0.033676,0.00732 -0.068816,0.00732 -0.066619,0 -0.1171332,-0.016838 -0.050514,-0.016838 -0.08419,-0.05271 -0.033676,-0.035872 -0.051246,-0.09151 -0.016838,-0.055638 -0.016838,-0.132507 V 4.2034152 h 0.1332391 v 0.5175826 q 0,0.095171 0.0388,0.1427562 0.0388,0.047585 0.1200616,0.047585 0.059299,0 0.099563,-0.019034 0.040265,-0.019034 0.064423,-0.055638 0.024891,-0.037336 0.03514,-0.09151 0.010981,-0.054174 0.010981,-0.1244541 V 4.2034152 h 0.1332391 v 0.803827 z" />
    <path
       id="path862"
       style=""
       d="M 7.9474058,5.0072422 H 7.8141667 V 3.8681213 h 0.1332391 z" />
    <path
       id="path864"
       style=""
       d="m 8.5213588,5.0218839 q -0.080529,0 -0.1471486,-0.027087 -0.06662,-0.027087 -0.114937,-0.079065 -0.047585,-0.051978 -0.07394,-0.1288465 -0.026355,-0.076869 -0.026355,-0.1756999 0,-0.099563 0.024159,-0.1778962 0.024159,-0.078333 0.068084,-0.132507 0.043925,-0.054906 0.1046878,-0.083457 0.061495,-0.028551 0.1354353,-0.028551 0.072476,0 0.1303108,0.026355 0.057835,0.025623 0.098099,0.073208 0.040265,0.046853 0.061495,0.1134729 0.021963,0.065887 0.021963,0.1464165 v 0.082725 H 8.2966094 q 0.00366,0.141292 0.059299,0.2079115 0.05637,0.06662 0.1669149,0.06662 0.037336,0 0.068816,-0.00366 0.032212,-0.00366 0.061495,-0.010249 0.030015,-0.00732 0.057834,-0.01757 0.027819,-0.010981 0.05637,-0.024159 v 0.1185974 q -0.029283,0.01391 -0.057835,0.024159 -0.027819,0.010249 -0.057835,0.016838 -0.029283,0.00659 -0.061495,0.00952 -0.031479,0.00293 -0.068816,0.00293 z M 8.4884151,4.2993181 q -0.083457,0 -0.132507,0.057102 -0.048318,0.057103 -0.05637,0.1661828 h 0.3601848 q 0,-0.049782 -0.010249,-0.090778 -0.00952,-0.041729 -0.030748,-0.071012 -0.020498,-0.029283 -0.05271,-0.045389 -0.032212,-0.016106 -0.077601,-0.016106 z" />
  </g>
  <path
     id="line937"
     d="M 12.065001,9.5250034 V 0.63499993"
     style="stroke:#000000;stroke-width:0.26864126;stroke-linecap:round;stroke-miterlimit:4;stroke-dasharray:none" />
  <path
     id="line11"
     d="M 12.065001,9.5250034 H 0.63500029"
     style="stroke:#000000;stroke-width:0.23812503;stroke-linecap:round;stroke-miterlimit:4;stroke-dasharray:none" />
  <g
     id="text941"
     style="font-style:normal;font-variant:normal;font-weight:normal;font-stretch:normal;font-size:1.23472238px;line-height:1.25;font-family:'Droid Sans';-inkscape-font-specification:'Droid Sans, Normal';font-variant-ligatures:normal;font-variant-caps:normal;font-variant-numeric:normal;font-feature-settings:normal;text-align:start;letter-spacing:0px;word-spacing:0px;writing-mode:lr-tb;text-anchor:start;fill:#000000;fill-opacity:1;stroke:none;stroke-width:0.26458335"
     aria-label="GND">
    <path
       id="path869"
       style="font-style:normal;font-variant:normal;font-weight:normal;font-stretch:normal;font-size:1.23472238px;font-family:'Droid Sans';-inkscape-font-specification:'Droid Sans, Normal';font-variant-ligatures:normal;font-variant-caps:normal;font-variant-numeric:normal;font-feature-settings:normal;text-align:start;writing-mode:lr-tb;text-anchor:start;stroke-width:0.26458335"
       d="M 1.7137373,8.2305839 H 2.005537 v 0.4322734 q -0.033159,0.010852 -0.066921,0.019292 -0.033762,0.00844 -0.069333,0.013867 -0.035571,0.00603 -0.074759,0.00904 -0.039188,0.00301 -0.084405,0.00301 -0.094654,0 -0.1676039,-0.03135 -0.07295,-0.031953 -0.12299,-0.090434 -0.05004,-0.059083 -0.075964,-0.1428853 -0.025924,-0.084405 -0.025924,-0.1893081 0,-0.1036974 0.028336,-0.1874993 0.028939,-0.083802 0.083802,-0.1422825 0.054863,-0.059083 0.1350478,-0.090434 0.080788,-0.031953 0.183882,-0.031953 0.066921,0 0.1284159,0.013264 0.061495,0.013264 0.1145494,0.038585 l -0.043408,0.097668 q -0.021704,-0.010249 -0.047026,-0.019293 -0.024719,-0.00904 -0.051246,-0.015675 -0.026527,-0.00723 -0.054863,-0.011455 -0.027733,-0.00422 -0.055466,-0.00422 -0.073553,0 -0.1302246,0.024719 -0.056672,0.024116 -0.095257,0.069936 -0.037982,0.04582 -0.057878,0.1115349 -0.019895,0.065715 -0.019895,0.1483114 0,0.078376 0.016278,0.1434883 0.016881,0.065112 0.053055,0.1121378 0.036174,0.047026 0.093448,0.07295 0.057275,0.025924 0.1380622,0.025924 0.026527,0 0.048231,-0.00121 0.022307,-0.00181 0.040997,-0.00422 0.01869,-0.00241 0.034968,-0.00543 0.016881,-0.00362 0.032556,-0.00663 V 8.3294581 H 1.7137373 Z" />
    <path
       id="path871"
       style="font-style:normal;font-variant:normal;font-weight:normal;font-stretch:normal;font-size:1.23472238px;font-family:'Droid Sans';-inkscape-font-specification:'Droid Sans, Normal';font-variant-ligatures:normal;font-variant-caps:normal;font-variant-numeric:normal;font-feature-settings:normal;text-align:start;writing-mode:lr-tb;text-anchor:start;stroke-width:0.26458335"
       d="M 2.8737011,8.6960163 H 2.7440794 L 2.3106002,7.9665173 h -0.00482 q 0.00362,0.046423 0.00603,0.092242 0.00241,0.039188 0.00362,0.081993 0.00181,0.042805 0.00181,0.07717 V 8.6960163 H 2.2135346 V 7.8145885 h 0.128416 l 0.4316705,0.7258817 h 0.00422 q -0.00181,-0.04582 -0.00422,-0.090434 -6.029e-4,-0.019293 -0.00181,-0.039188 -6.029e-4,-0.020498 -0.00181,-0.040394 -6.029e-4,-0.020498 -0.00121,-0.039188 0,-0.01869 0,-0.034365 V 7.8145885 h 0.1049032 z" />
    <path
       id="path873"
       style="font-style:normal;font-variant:normal;font-weight:normal;font-stretch:normal;font-size:1.23472238px;font-family:'Droid Sans';-inkscape-font-specification:'Droid Sans, Normal';font-variant-ligatures:normal;font-variant-caps:normal;font-variant-numeric:normal;font-feature-settings:normal;text-align:start;writing-mode:lr-tb;text-anchor:start;stroke-width:0.26458335"
       d="m 3.7623636,8.2468619 q 0,0.111535 -0.028939,0.1959399 -0.028939,0.083802 -0.083802,0.1404737 -0.054863,0.056069 -0.1350478,0.084405 -0.079582,0.028336 -0.1808675,0.028336 H 3.1130492 V 7.8145885 h 0.2453769 q 0.092243,0 0.167001,0.027733 0.074759,0.027733 0.1272102,0.082596 0.052452,0.05426 0.080788,0.1350478 0.028939,0.080787 0.028939,0.1868964 z m -0.1187697,0.00362 q 0,-0.088022 -0.019895,-0.1519287 -0.019895,-0.064509 -0.057878,-0.106109 -0.037982,-0.0416 -0.093448,-0.061495 -0.055466,-0.020498 -0.1260044,-0.020498 H 3.225187 v 0.6891053 h 0.097669 q 0.1591634,0 0.2399509,-0.088022 0.080788,-0.088022 0.080788,-0.2610521 z" />
  </g>
  <g
     id="text945"
     style="font-style:normal;font-variant:normal;font-weight:normal;font-stretch:normal;font-size:1.23472238px;line-height:1.25;font-family:'Droid Sans';-inkscape-font-specification:'Droid Sans, Normal';font-variant-ligatures:normal;font-variant-caps:normal;font-variant-numeric:normal;font-feature-settings:normal;text-align:start;letter-spacing:0px;word-spacing:0px;writing-mode:lr-tb;text-anchor:start;fill:#000000;fill-opacity:1;stroke:none;stroke-width:0.26458335"
     aria-label="SDA">
    <path
       id="path876"
       style=""
       d="m 4.5208186,8.4602856 q 0,0.05848 -0.021101,0.1049032 -0.020498,0.04582 -0.059083,0.077773 -0.038585,0.031953 -0.094051,0.048834 -0.055466,0.016278 -0.1247986,0.016278 -0.066921,0 -0.1254015,-0.010852 -0.057878,-0.010249 -0.097066,-0.030747 V 8.5591599 q 0.020498,0.00965 0.046423,0.019293 0.026527,0.00904 0.055466,0.016278 0.028939,0.00723 0.059686,0.012058 0.030747,0.00422 0.060892,0.00422 0.096463,0 0.1422825,-0.036174 0.046423,-0.036174 0.046423,-0.1036974 0,-0.032556 -0.00904,-0.056672 -0.00844,-0.024116 -0.030748,-0.044011 -0.021704,-0.020498 -0.05848,-0.039188 -0.036776,-0.019293 -0.092845,-0.0416 -0.053657,-0.021101 -0.093448,-0.04582 -0.039188,-0.025321 -0.065112,-0.056672 -0.025321,-0.03135 -0.037982,-0.071141 -0.012058,-0.039791 -0.012058,-0.090434 0,-0.053054 0.019293,-0.094654 0.019293,-0.0416 0.05426,-0.069935 0.034968,-0.028939 0.083199,-0.044011 0.048834,-0.015072 0.1073147,-0.015072 0.071744,0 0.1290189,0.013867 0.057275,0.013264 0.1018887,0.034365 l -0.040394,0.094051 Q 4.4261646,7.9267264 4.3761245,7.9140657 4.3266874,7.900802 4.2736329,7.900802 q -0.073553,0 -0.1139465,0.034365 -0.040394,0.033762 -0.040394,0.09164 0,0.034365 0.00904,0.059686 0.00904,0.024719 0.030145,0.045217 0.021101,0.019895 0.055466,0.037982 0.034968,0.017484 0.085611,0.037379 0.054863,0.021704 0.09586,0.044614 0.041599,0.02291 0.069332,0.051849 0.027733,0.028939 0.0416,0.066921 0.014469,0.037982 0.014469,0.089831 z" />
    <path
       id="path878"
       style=""
       d="m 5.3473832,8.2468619 q 0,0.111535 -0.028939,0.1959399 -0.028939,0.083802 -0.083802,0.1404737 -0.054863,0.056069 -0.1350477,0.084405 -0.079582,0.028336 -0.1808676,0.028336 H 4.6980688 V 7.8145885 h 0.2453769 q 0.092243,0 0.167001,0.027733 0.074759,0.027733 0.1272102,0.082596 0.052452,0.05426 0.080787,0.1350478 0.028939,0.080787 0.028939,0.1868964 z m -0.1187697,0.00362 q 0,-0.088022 -0.019895,-0.1519287 -0.019895,-0.064509 -0.057878,-0.106109 -0.037982,-0.0416 -0.093448,-0.061495 -0.055466,-0.020498 -0.1260044,-0.020498 H 4.8102066 v 0.6891053 h 0.097669 q 0.1591634,0 0.2399509,-0.088022 0.080787,-0.088022 0.080787,-0.2610521 z" />
    <path
       id="path880"
       style=""
       d="m 6.0461348,8.6960163 -0.096463,-0.27311 H 5.6210961 l -0.097668,0.27311 H 5.410084 L 5.7338369,7.8109712 H 5.8363285 L 6.1606843,8.6960163 Z M 5.9141015,8.3234292 5.8248736,8.0678031 q -0.00362,-0.010852 -0.00904,-0.026527 -0.00482,-0.015675 -0.010249,-0.033762 -0.00543,-0.018087 -0.010852,-0.037379 -0.00543,-0.019895 -0.010249,-0.038585 -0.00422,0.01869 -0.00965,0.038585 -0.00543,0.019895 -0.010852,0.038585 -0.00543,0.018087 -0.010852,0.033762 -0.00482,0.015072 -0.00844,0.025322 l -0.087419,0.2556261 z" />
  </g>
  <g
     id="text951"
     style="font-style:normal;font-variant:normal;font-weight:normal;font-stretch:normal;font-size:1.23472238px;line-height:1.25;font-family:'Droid Sans';-inkscape-font-specification:'Droid Sans, Normal';font-variant-ligatures:normal;font-variant-caps:normal;font-variant-numeric:normal;font-feature-settings:normal;text-align:start;letter-spacing:0px;word-spacing:0px;writing-mode:lr-tb;text-anchor:start;fill:#000000;fill-opacity:1;stroke:none;stroke-width:0.26458335"
     aria-label="SCL">
    <path
       id="path883"
       style=""
       d="m 7.1907419,8.4602856 q 0,0.05848 -0.021101,0.1049032 -0.020498,0.04582 -0.059083,0.077773 -0.038585,0.031953 -0.094051,0.048834 -0.055466,0.016278 -0.1247986,0.016278 -0.066921,0 -0.1254015,-0.010852 -0.057878,-0.010249 -0.097066,-0.030747 V 8.5591599 q 0.020498,0.00965 0.046423,0.019293 0.026527,0.00904 0.055466,0.016278 0.028939,0.00723 0.059686,0.012058 0.030748,0.00422 0.060892,0.00422 0.096463,0 0.1422825,-0.036174 0.046423,-0.036174 0.046423,-0.1036974 0,-0.032556 -0.00904,-0.056672 -0.00844,-0.024116 -0.030747,-0.044011 -0.021704,-0.020498 -0.05848,-0.039188 -0.036776,-0.019293 -0.092845,-0.0416 -0.053657,-0.021101 -0.093448,-0.04582 -0.039188,-0.025321 -0.065112,-0.056672 -0.025321,-0.03135 -0.037982,-0.071141 -0.012058,-0.039791 -0.012058,-0.090434 0,-0.053054 0.019293,-0.094654 0.019292,-0.0416 0.05426,-0.069935 0.034968,-0.028939 0.083199,-0.044011 0.048834,-0.015072 0.1073147,-0.015072 0.071744,0 0.1290189,0.013867 0.057275,0.013264 0.1018887,0.034365 l -0.040394,0.094051 Q 7.0960879,7.9267264 7.0460478,7.9140657 6.9966107,7.900802 6.9435562,7.900802 q -0.073553,0 -0.1139465,0.034365 -0.040394,0.033762 -0.040394,0.09164 0,0.034365 0.00904,0.059686 0.00904,0.024719 0.030145,0.045217 0.021101,0.019895 0.055466,0.037982 0.034968,0.017484 0.085611,0.037379 0.054863,0.021704 0.09586,0.044614 0.0416,0.02291 0.069332,0.051849 0.027733,0.028939 0.0416,0.066921 0.014469,0.037982 0.014469,0.089831 z" />
    <path
       id="path885"
       style=""
       d="m 7.7261098,7.900802 q -0.064509,0 -0.116961,0.024719 -0.052452,0.024116 -0.089831,0.069936 -0.036776,0.04582 -0.057275,0.1115349 -0.019895,0.065715 -0.019895,0.1483114 0,0.085008 0.017484,0.1513259 0.018087,0.065715 0.053657,0.110932 0.035571,0.045217 0.088625,0.06873 0.053055,0.023513 0.1241957,0.023513 0.053657,0 0.1018887,-0.010249 0.048231,-0.010852 0.095257,-0.024719 v 0.097668 q -0.023513,0.00904 -0.047026,0.016278 -0.023513,0.00663 -0.049437,0.010852 -0.025321,0.00422 -0.054863,0.00603 -0.028939,0.00241 -0.064509,0.00241 -0.098874,0 -0.1712212,-0.032556 -0.072347,-0.032556 -0.1199755,-0.092243 -0.047026,-0.059686 -0.069935,-0.1434882 -0.02291,-0.083802 -0.02291,-0.1856907 0,-0.10008 0.025924,-0.1832791 0.026527,-0.083199 0.07717,-0.1428853 0.051246,-0.059686 0.1266072,-0.092845 0.075362,-0.033159 0.17303,-0.033159 0.065112,0 0.1241957,0.013264 0.059083,0.013264 0.1067118,0.038585 l -0.047026,0.094051 Q 7.8720096,7.9285351 7.8273956,7.9146686 7.7827816,7.900802 7.7261098,7.900802 Z" />
    <path
       id="path887"
       style=""
       d="M 8.1131662,8.6960163 V 7.8145885 h 0.1121379 v 0.7813478 h 0.345457 v 0.10008 z" />
  </g>
  <g
     id="text957"
     style="font-style:normal;font-variant:normal;font-weight:normal;font-stretch:normal;font-size:1.23472238px;line-height:1.25;font-family:'Droid Sans';-inkscape-font-specification:'Droid Sans, Normal';font-variant-ligatures:normal;font-variant-caps:normal;font-variant-numeric:normal;font-feature-settings:normal;text-align:start;letter-spacing:0px;word-spacing:0px;writing-mode:lr-tb;text-anchor:start;fill:#000000;fill-opacity:1;stroke:none;stroke-width:0.26458335"
     aria-label="VDD">
    <path
       id="path890"
       style=""
       d="M 9.5842396,7.8142872 H 9.7036122 L 9.4087981,8.695715 H 9.2960573 L 9.002449,7.8142872 h 0.1187697 l 0.1778531,0.5588806 q 0.017484,0.054863 0.030145,0.106109 0.012661,0.050643 0.02291,0.095257 0.00904,-0.044614 0.02291,-0.095257 0.013866,-0.051246 0.032556,-0.1097263 z" />
    <path
       id="path892"
       style=""
       d="m 10.473505,8.2465606 q 0,0.111535 -0.02894,0.1959398 -0.02894,0.083802 -0.0838,0.1404738 -0.05486,0.056069 -0.135048,0.084405 -0.07958,0.028336 -0.180867,0.028336 H 9.8241905 V 7.8142872 h 0.2453765 q 0.09224,0 0.167001,0.027733 0.07476,0.027733 0.127211,0.082596 0.05245,0.05426 0.08079,0.1350477 0.02894,0.080787 0.02894,0.1868965 z m -0.11877,0.00362 q 0,-0.088022 -0.01989,-0.1519287 -0.0199,-0.064509 -0.05788,-0.106109 -0.03798,-0.041599 -0.09345,-0.061495 Q 10.128048,7.910147 10.05751,7.910147 H 9.9363284 v 0.6891053 h 0.097669 q 0.159163,0 0.239951,-0.088022 0.08079,-0.088022 0.08079,-0.2610522 z" />
    <path
       id="path894"
       style=""
       d="m 11.317553,8.2465606 q 0,0.111535 -0.02894,0.1959398 -0.02894,0.083802 -0.0838,0.1404738 -0.05486,0.056069 -0.135048,0.084405 -0.07958,0.028336 -0.180868,0.028336 H 10.668239 V 7.8142872 h 0.245377 q 0.09224,0 0.167001,0.027733 0.07476,0.027733 0.12721,0.082596 0.05245,0.05426 0.08079,0.1350477 0.02894,0.080787 0.02894,0.1868965 z m -0.118769,0.00362 q 0,-0.088022 -0.0199,-0.1519287 -0.01989,-0.064509 -0.05788,-0.106109 -0.03798,-0.041599 -0.09345,-0.061495 -0.05547,-0.020498 -0.126005,-0.020498 h -0.121181 v 0.6891053 h 0.09767 q 0.159164,0 0.239951,-0.088022 0.08079,-0.088022 0.08079,-0.2610522 z" />
  </g>
</svg>
