<?xml version="1.0" encoding="UTF-8" standalone="no"?>
<svg
   xmlns:dc="http://purl.org/dc/elements/1.1/"
   xmlns:cc="http://creativecommons.org/ns#"
   xmlns:rdf="http://www.w3.org/1999/02/22-rdf-syntax-ns#"
   xmlns:svg="http://www.w3.org/2000/svg"
   xmlns="http://www.w3.org/2000/svg"
   xmlns:sodipodi="http://sodipodi.sourceforge.net/DTD/sodipodi-0.dtd"
   xmlns:inkscape="http://www.inkscape.org/namespaces/inkscape"
   version="1.1"
   viewBox="0 0 20.32 27.940002"
   gorn="0"
   id="svg1322"
   width="0.80000001in"
   height="1.1in"
   sodipodi:docname="GP2Y0E03_breadboard_ol.svg"
   inkscape:version="0.92.3 (2405546, 2018-03-11)">
  <sodipodi:namedview
     pagecolor="#ffffff"
     bordercolor="#666666"
     borderopacity="1"
     objecttolerance="10"
     gridtolerance="10"
     guidetolerance="10"
     inkscape:pageopacity="0"
     inkscape:pageshadow="2"
     inkscape:window-width="1478"
     inkscape:window-height="795"
     id="namedview102"
     showgrid="true"
     units="in"
     inkscape:snap-object-midpoints="true"
     inkscape:zoom="6.3211059"
     inkscape:cx="24.229414"
     inkscape:cy="54.994883"
     inkscape:window-x="109"
     inkscape:window-y="34"
     inkscape:window-maximized="0"
     inkscape:current-layer="svg1322">
    <inkscape:grid
       type="xygrid"
       id="grid909"
       units="in"
       spacingx="0.63500002"
       spacingy="0.63500002"
       empspacing="4"
       dotted="false" />
  </sodipodi:namedview>
  <desc
     id="desc2">
    <referenceFile>adt7410-ol.svg</referenceFile>
  </desc>
  <defs
     id="defs1316" />
  <metadata
     id="metadata1319">
    <rdf:RDF>
      <cc:Work
         rdf:about="">
        <dc:format>image/svg+xml</dc:format>
        <dc:type
           rdf:resource="http://purl.org/dc/dcmitype/StillImage" />
        <dc:title></dc:title>
      </cc:Work>
    </rdf:RDF>
  </metadata>
  <path
     style="fill:#ff6600;stroke:#fe851b;stroke-width:0.63499999;stroke-linecap:round;stroke-linejoin:miter;stroke-miterlimit:4;stroke-dasharray:none;stroke-opacity:1"
     d="m 10.16,19.05 v 3.810001"
     id="path1207"
     inkscape:connector-curvature="0" />
  <path
     style="fill:none;stroke:#fe851b;stroke-width:0.63499999;stroke-linecap:round;stroke-linejoin:miter;stroke-miterlimit:4;stroke-dasharray:none;stroke-opacity:1"
     d="m 7.6200002,22.860001 c 0,-1.27 1.27,-2.540001 1.27,-3.810001"
     id="path1209"
     inkscape:connector-curvature="0"
     sodipodi:nodetypes="cc" />
  <path
     style="fill:none;stroke:#fe851b;stroke-width:0.63499999;stroke-linecap:round;stroke-linejoin:miter;stroke-miterlimit:4;stroke-dasharray:none;stroke-opacity:1"
     d="m 5.0800001,22.860001 c 0,-1.27 2.5400001,-2.540001 2.5400001,-3.810001"
     id="path1211"
     inkscape:connector-curvature="0"
     sodipodi:nodetypes="cc" />
  <path
     style="fill:none;stroke:#fe851b;stroke-width:0.63499999;stroke-linecap:round;stroke-linejoin:miter;stroke-miterlimit:4;stroke-dasharray:none;stroke-opacity:1"
     d="M 2.54,22.860001 C 2.54,21.590001 5.7150001,20.32 5.7150001,19.05"
     id="path1213"
     inkscape:connector-curvature="0"
     sodipodi:nodetypes="cc" />
  <path
     style="fill:none;stroke:#fe851b;stroke-width:0.63499999;stroke-linecap:round;stroke-linejoin:miter;stroke-miterlimit:4;stroke-dasharray:none;stroke-opacity:1"
     d="M 12.7,22.860001 C 12.7,21.590001 11.43,20.32 11.43,19.05"
     id="path1215"
     inkscape:connector-curvature="0"
     sodipodi:nodetypes="cc" />
  <path
     style="fill:none;stroke:#fe851b;stroke-width:0.63499999;stroke-linecap:round;stroke-linejoin:miter;stroke-miterlimit:4;stroke-dasharray:none;stroke-opacity:1"
     d="M 15.24,22.860001 C 15.24,21.590001 12.7,20.32 12.7,19.05"
     id="path1217"
     inkscape:connector-curvature="0"
     sodipodi:nodetypes="cc" />
  <path
     style="fill:none;stroke:#fe851b;stroke-width:0.63499999;stroke-linecap:round;stroke-linejoin:miter;stroke-miterlimit:4;stroke-dasharray:none;stroke-opacity:1"
     d="M 17.78,22.860001 C 17.780001,21.590001 13.97,20.32 13.97,19.05"
     id="path1219"
     inkscape:connector-curvature="0"
     sodipodi:nodetypes="cc" />
  <path
     style="fill:#008000;fill-opacity:1;stroke:none;stroke-width:0.99868256;stroke-linecap:round;stroke-linejoin:round;stroke-miterlimit:4;stroke-dasharray:none;stroke-opacity:1"
     d="M 4.6600003,0.54000008 H 15.66 V 17.240001 H 4.6600003 Z"
     id="rect1185" />
  <path
     style="fill:#333333;fill-opacity:1;stroke:none;stroke-width:1.21691072;stroke-linecap:round;stroke-linejoin:round;stroke-miterlimit:4;stroke-dasharray:none;stroke-opacity:1"
     d="M 5.0799999,4.2778168 H 15.240001 V 9.5249996 H 5.0799999 Z"
     id="rect1187" />
  <path
     style="fill:#333333;fill-opacity:1;stroke:none;stroke-width:1.07095814;stroke-linecap:round;stroke-linejoin:round;stroke-miterlimit:4;stroke-dasharray:none;stroke-opacity:1"
     d="M 5.0799999,12.065 H 15.240001 v 5.08 H 5.0799999 Z"
     id="rect1189" />
  <path
     style="fill:#8c8c8c;fill-opacity:1;stroke:none;stroke-width:0.70710677;stroke-linecap:round;stroke-linejoin:round;stroke-miterlimit:4;stroke-dasharray:none;stroke-opacity:1"
     d="M 1.9049999,22.860001 H 3.175 v 5.08 H 1.9049999 Z"
     id="rect1191" />
  <path
     style="fill:#8c8c8c;fill-opacity:1;stroke:none;stroke-width:0.70710677;stroke-linecap:round;stroke-linejoin:round;stroke-miterlimit:4;stroke-dasharray:none;stroke-opacity:1"
     d="m 4.4450002,22.860001 h 1.2700001 v 5.08 H 4.4450002 Z"
     id="rect1193" />
  <path
     style="fill:#8c8c8c;fill-opacity:1;stroke:none;stroke-width:0.70710677;stroke-linecap:round;stroke-linejoin:round;stroke-miterlimit:4;stroke-dasharray:none;stroke-opacity:1"
     d="m 6.9850001,22.860001 h 1.2700001 v 5.08 H 6.9850001 Z"
     id="rect1195" />
  <path
     style="fill:#8c8c8c;fill-opacity:1;stroke:none;stroke-width:0.70710677;stroke-linecap:round;stroke-linejoin:round;stroke-miterlimit:4;stroke-dasharray:none;stroke-opacity:1"
     d="M 9.5249996,22.860001 H 10.795 v 5.08 H 9.5249996 Z"
     id="rect1197" />
  <path
     style="fill:#8c8c8c;fill-opacity:1;stroke:none;stroke-width:0.70710677;stroke-linecap:round;stroke-linejoin:round;stroke-miterlimit:4;stroke-dasharray:none;stroke-opacity:1"
     d="m 12.065,22.860001 h 1.27 v 5.08 h -1.27 z"
     id="rect1199" />
  <path
     style="fill:#8c8c8c;fill-opacity:1;stroke:none;stroke-width:0.70710677;stroke-linecap:round;stroke-linejoin:round;stroke-miterlimit:4;stroke-dasharray:none;stroke-opacity:1"
     d="m 14.605,22.860001 h 1.27 v 5.08 h -1.27 z"
     id="rect1201" />
  <path
     style="fill:#8c8c8c;fill-opacity:1;stroke:none;stroke-width:0.70710677;stroke-linecap:round;stroke-linejoin:round;stroke-miterlimit:4;stroke-dasharray:none;stroke-opacity:1"
     d="m 17.145,22.860001 h 1.270001 v 5.08 H 17.145 Z"
     id="rect1203" />
  <path
     style="fill:#ffe680;fill-opacity:1;stroke:none;stroke-width:1.00953984;stroke-linecap:round;stroke-linejoin:round;stroke-miterlimit:4;stroke-dasharray:none;stroke-opacity:1"
     d="M 4.4450002,17.24 H 15.875 v 1.809999 H 4.4450002 Z"
     id="rect1205" />
  <path
     style="fill:#333333;fill-opacity:1;stroke:none;stroke-width:0.63500005;stroke-linecap:round;stroke-linejoin:round;stroke-miterlimit:4;stroke-dasharray:none;stroke-opacity:1"
     d="m 1.27,24.130001 h 17.779999 v 1.27 H 1.27 Z"
     id="rect1223" />
  <path
     style="fill:#e6e6e6;fill-opacity:1;stroke:none;stroke-width:0.63500005;stroke-linecap:round;stroke-linejoin:round;stroke-miterlimit:4;stroke-dasharray:none;stroke-opacity:1"
     d="m 14.9225,6.9849992 a 2.2224996,2.2225003 0 0 1 -2.222499,2.2225003 2.2224996,2.2225003 0 0 1 -2.2225,-2.2225003 2.2224996,2.2225003 0 0 1 2.2225,-2.2225003 2.2224996,2.2225003 0 0 1 2.222499,2.2225003 z"
     id="ellipse1231" />
  <path
     style="fill:#e6e6e6;fill-opacity:1;stroke:none;stroke-width:0.63500005;stroke-linecap:round;stroke-linejoin:round;stroke-miterlimit:4;stroke-dasharray:none;stroke-opacity:1"
     d="M 9.8425,6.9849992 A 2.2224996,2.2225003 0 0 1 7.6200004,9.2074995 2.2224996,2.2225003 0 0 1 5.3975008,6.9849992 2.2224996,2.2225003 0 0 1 7.6200004,4.7624989 2.2224996,2.2225003 0 0 1 9.8425,6.9849992 Z"
     id="ellipse1233" />
  <g
     aria-label="GP2Y0E03"
     style="font-style:normal;font-variant:normal;font-weight:normal;font-stretch:normal;font-size:2.11666656px;line-height:1.25;font-family:'Droid Sans';-inkscape-font-specification:'Droid Sans, Normal';font-variant-ligatures:normal;font-variant-caps:normal;font-variant-numeric:normal;font-feature-settings:normal;text-align:start;letter-spacing:0px;word-spacing:0px;writing-mode:lr-tb;text-anchor:start;fill:#ececec;fill-opacity:1;stroke:none;stroke-width:0.26458335"
     id="text1237">
    <path
       d="m 6.1656245,2.3448269 h 0.5002279 v 0.74104 q -0.056844,0.018603 -0.1147217,0.033073 -0.057878,0.014469 -0.1188558,0.023771 -0.060978,0.010335 -0.1281575,0.015503 -0.067179,0.00517 -0.144694,0.00517 -0.162264,0 -0.287321,-0.053743 Q 5.7470455,3.054861 5.6612626,2.9546087 5.5754797,2.8533229 5.531038,2.7096624 5.4865963,2.5649684 5.4865963,2.3851345 q 0,-0.177767 0.048576,-0.3214274 Q 5.5847815,1.9200466 5.6788326,1.8197943 5.7728837,1.7185085 5.910343,1.664765 6.0488358,1.609988 6.2255692,1.609988 q 0.1147217,0 0.2201416,0.022738 0.1054199,0.022738 0.1963704,0.066146 l -0.074414,0.1674316 q -0.037207,-0.01757 -0.080615,-0.033073 -0.042375,-0.015503 -0.08785,-0.026872 -0.045475,-0.012402 -0.094051,-0.019637 -0.047542,-0.00723 -0.095085,-0.00723 -0.1260905,0 -0.2232422,0.042375 -0.097152,0.041341 -0.1632975,0.1198893 -0.065112,0.078548 -0.099219,0.1912028 -0.034106,0.1126546 -0.034106,0.254248 0,0.1343587 0.027905,0.2459798 0.028939,0.1116211 0.09095,0.1922363 0.062012,0.080615 0.1601969,0.125057 0.098185,0.044442 0.2366781,0.044442 0.045475,0 0.082682,-0.00207 0.038241,-0.0031 0.07028,-0.00723 0.032039,-0.00413 0.059945,-0.0093 0.028939,-0.0062 0.055811,-0.011369 V 2.5143255 H 6.1656245 Z"
       style="font-style:normal;font-variant:normal;font-weight:normal;font-stretch:normal;font-size:2.11666656px;font-family:'Droid Sans';-inkscape-font-specification:'Droid Sans, Normal';font-variant-ligatures:normal;font-variant-caps:normal;font-variant-numeric:normal;font-feature-settings:normal;text-align:start;writing-mode:lr-tb;text-anchor:start;fill:#ececec;stroke-width:0.26458335"
       id="path850" />
    <path
       d="m 7.9277908,2.0740424 q 0,0.094051 -0.028939,0.1808675 -0.027905,0.086816 -0.093018,0.1539957 -0.065112,0.066146 -0.1725993,0.1064535 -0.1064534,0.039274 -0.2635498,0.039274 H 7.2146561 V 3.1427109 H 7.0224197 V 1.6316921 h 0.3741374 q 0.1384928,0 0.2387451,0.029972 0.1002523,0.028939 0.1653646,0.085783 0.065112,0.055811 0.096118,0.1384929 0.031006,0.082682 0.031006,0.1881022 z M 7.2146561,2.3913356 h 0.1333251 q 0.096118,0 0.1674317,-0.016536 0.072347,-0.016536 0.1188558,-0.05271 0.047542,-0.037207 0.071313,-0.095085 0.023771,-0.058911 0.023771,-0.142627 0,-0.146761 -0.084749,-0.217041 -0.084749,-0.071313 -0.2645833,-0.071313 H 7.2146561 Z"
       style="font-style:normal;font-variant:normal;font-weight:normal;font-stretch:normal;font-size:2.11666656px;font-family:'Droid Sans';-inkscape-font-specification:'Droid Sans, Normal';font-variant-ligatures:normal;font-variant-caps:normal;font-variant-numeric:normal;font-feature-settings:normal;text-align:start;writing-mode:lr-tb;text-anchor:start;fill:#ececec;stroke-width:0.26458335"
       id="path852" />
    <path
       d="M 9.078108,3.1427109 H 8.1355299 V 2.9814805 l 0.361735,-0.3937744 q 0.077515,-0.083716 0.1384928,-0.1529623 0.060978,-0.069246 0.1033529,-0.1353922 0.043408,-0.066146 0.066146,-0.1322917 0.022738,-0.067179 0.022738,-0.1457275 0,-0.060978 -0.01757,-0.107487 -0.01757,-0.046509 -0.050643,-0.078548 -0.032039,-0.033073 -0.076481,-0.049609 -0.044442,-0.016537 -0.099219,-0.016537 -0.098185,0 -0.1777669,0.040308 -0.078548,0.039274 -0.1498617,0.1012858 L 8.1510328,1.7877549 q 0.041341,-0.037207 0.088884,-0.069246 0.047542,-0.033073 0.1023193,-0.056844 0.054777,-0.023771 0.1157552,-0.037207 0.060978,-0.014469 0.1281576,-0.014469 0.099219,0 0.1788004,0.027905 0.080615,0.027905 0.1364258,0.080615 0.05581,0.051676 0.085783,0.127124 0.031006,0.074414 0.031006,0.1684652 0,0.08785 -0.027905,0.1674316 -0.026872,0.079582 -0.075448,0.1570964 -0.047542,0.076481 -0.1147217,0.1539957 -0.066146,0.077515 -0.1436605,0.1612305 l -0.2904215,0.309025 v 0.00827 H 9.078108 Z"
       style="font-style:normal;font-variant:normal;font-weight:normal;font-stretch:normal;font-size:2.11666656px;font-family:'Droid Sans';-inkscape-font-specification:'Droid Sans, Normal';font-variant-ligatures:normal;font-variant-caps:normal;font-variant-numeric:normal;font-feature-settings:normal;text-align:start;writing-mode:lr-tb;text-anchor:start;fill:#ececec;stroke-width:0.26458335"
       id="path854" />
    <path
       d="M 9.7592034,2.3954698 10.110603,1.6316921 h 0.206706 L 9.8563551,2.5546332 V 3.1427109 H 9.6630853 V 2.5649684 L 9.2021315,1.6316921 h 0.2098063 z"
       style="font-style:normal;font-variant:normal;font-weight:normal;font-stretch:normal;font-size:2.11666656px;font-family:'Droid Sans';-inkscape-font-specification:'Droid Sans, Normal';font-variant-ligatures:normal;font-variant-caps:normal;font-variant-numeric:normal;font-feature-settings:normal;text-align:start;writing-mode:lr-tb;text-anchor:start;fill:#ececec;stroke-width:0.26458335"
       id="path856" />
    <path
       d="m 11.384944,2.3851345 q 0,0.1829345 -0.02687,0.3276285 -0.02584,0.144694 -0.08475,0.2449463 -0.05788,0.1002523 -0.149862,0.1529622 -0.09198,0.05271 -0.223242,0.05271 -0.121956,0 -0.212907,-0.05271 -0.08992,-0.05271 -0.149861,-0.1529622 -0.05891,-0.1002523 -0.08888,-0.2449463 -0.02894,-0.144694 -0.02894,-0.3276285 0,-0.1829346 0.02584,-0.3276286 0.02687,-0.144694 0.08372,-0.2439127 0.05788,-0.1002523 0.148828,-0.1529623 0.09198,-0.05271 0.222208,-0.05271 0.12299,0 0.213941,0.05271 0.09095,0.051677 0.150895,0.1519287 0.05994,0.099219 0.08992,0.2439128 0.02997,0.144694 0.02997,0.3286621 z m -0.774113,0 q 0,0.1550293 0.0155,0.2707845 0.0155,0.1157552 0.04961,0.1932698 0.03411,0.076481 0.08888,0.1157552 0.05581,0.038241 0.135392,0.038241 0.07958,0 0.135393,-0.038241 0.05581,-0.038241 0.09095,-0.1147217 0.03617,-0.076481 0.05168,-0.1922363 0.01654,-0.1167887 0.01654,-0.2728515 0,-0.1550293 -0.01654,-0.2707845 -0.0155,-0.1157552 -0.05168,-0.1922363 -0.03514,-0.076481 -0.09095,-0.1147217 -0.05581,-0.038241 -0.135393,-0.038241 -0.07958,0 -0.135392,0.038241 -0.05478,0.03824 -0.08888,0.1147217 -0.03411,0.076481 -0.04961,0.1922363 -0.0155,0.1157552 -0.0155,0.2707845 z"
       style="font-style:normal;font-variant:normal;font-weight:normal;font-stretch:normal;font-size:2.11666656px;font-family:'Droid Sans';-inkscape-font-specification:'Droid Sans, Normal';font-variant-ligatures:normal;font-variant-caps:normal;font-variant-numeric:normal;font-feature-settings:normal;text-align:start;writing-mode:lr-tb;text-anchor:start;fill:#ececec;stroke-width:0.26458335"
       id="path858" />
    <path
       d="M 12.474283,3.1427109 H 11.689835 V 1.6316921 h 0.784448 v 0.1694987 h -0.592212 v 0.4671549 h 0.552938 v 0.1674317 h -0.552938 v 0.5374348 h 0.592212 z"
       style="font-style:normal;font-variant:normal;font-weight:normal;font-stretch:normal;font-size:2.11666656px;font-family:'Droid Sans';-inkscape-font-specification:'Droid Sans, Normal';font-variant-ligatures:normal;font-variant-caps:normal;font-variant-numeric:normal;font-feature-settings:normal;text-align:start;writing-mode:lr-tb;text-anchor:start;fill:#ececec;stroke-width:0.26458335"
       id="path860" />
    <path
       d="m 13.666975,2.3851345 q 0,0.1829345 -0.02687,0.3276285 -0.02584,0.144694 -0.08475,0.2449463 -0.05788,0.1002523 -0.149861,0.1529622 -0.09198,0.05271 -0.223243,0.05271 -0.121956,0 -0.212907,-0.05271 -0.08992,-0.05271 -0.149861,-0.1529622 -0.05891,-0.1002523 -0.08888,-0.2449463 -0.02894,-0.144694 -0.02894,-0.3276285 0,-0.1829346 0.02584,-0.3276286 0.02687,-0.144694 0.08372,-0.2439127 0.05788,-0.1002523 0.148828,-0.1529623 0.09198,-0.05271 0.222208,-0.05271 0.12299,0 0.213941,0.05271 0.09095,0.051677 0.150895,0.1519287 0.05994,0.099219 0.08992,0.2439128 0.02997,0.144694 0.02997,0.3286621 z m -0.774113,0 q 0,0.1550293 0.0155,0.2707845 0.0155,0.1157552 0.04961,0.1932698 0.03411,0.076481 0.08888,0.1157552 0.05581,0.038241 0.135392,0.038241 0.07958,0 0.135393,-0.038241 0.05581,-0.038241 0.09095,-0.1147217 0.03617,-0.076481 0.05168,-0.1922363 0.01654,-0.1167887 0.01654,-0.2728515 0,-0.1550293 -0.01654,-0.2707845 -0.0155,-0.1157552 -0.05168,-0.1922363 -0.03514,-0.076481 -0.09095,-0.1147217 -0.05581,-0.038241 -0.135393,-0.038241 -0.07958,0 -0.135392,0.038241 -0.05478,0.03824 -0.08888,0.1147217 -0.03411,0.076481 -0.04961,0.1922363 -0.0155,0.1157552 -0.0155,0.2707845 z"
       style="font-style:normal;font-variant:normal;font-weight:normal;font-stretch:normal;font-size:2.11666656px;font-family:'Droid Sans';-inkscape-font-specification:'Droid Sans, Normal';font-variant-ligatures:normal;font-variant-caps:normal;font-variant-numeric:normal;font-feature-settings:normal;text-align:start;writing-mode:lr-tb;text-anchor:start;fill:#ececec;stroke-width:0.26458335"
       id="path862" />
    <path
       d="m 14.759415,1.9851589 q 0,0.075448 -0.02377,0.1374593 -0.02377,0.062012 -0.06718,0.107487 -0.04237,0.045475 -0.102319,0.075448 -0.05995,0.028939 -0.133325,0.041341 v 0.0062 q 0.182934,0.022738 0.278019,0.1167887 0.09508,0.093018 0.09508,0.2428792 0,0.099219 -0.03411,0.1819011 -0.03307,0.082682 -0.101286,0.1426269 -0.06821,0.059945 -0.172599,0.093018 -0.104386,0.033073 -0.247013,0.033073 -0.112655,0 -0.212907,-0.01757 -0.09922,-0.01757 -0.187069,-0.064079 V 2.9060329 q 0.08992,0.047542 0.194304,0.07338 0.10542,0.025838 0.201538,0.025838 0.09508,0 0.164331,-0.020671 0.06925,-0.020671 0.113688,-0.058911 0.04547,-0.038241 0.06615,-0.094051 0.0217,-0.055811 0.0217,-0.1250569 0,-0.07028 -0.0279,-0.1198894 -0.02687,-0.050643 -0.07752,-0.082682 -0.05064,-0.033073 -0.124024,-0.048576 -0.07235,-0.015503 -0.164331,-0.015503 H 14.08142 V 2.2838487 h 0.137459 q 0.08372,0 0.148829,-0.020671 0.06511,-0.020671 0.10852,-0.058911 0.04444,-0.038241 0.06718,-0.090951 0.02274,-0.05271 0.02274,-0.1157552 0,-0.053743 -0.0186,-0.096118 -0.0186,-0.042375 -0.05271,-0.071314 -0.03411,-0.029972 -0.08165,-0.045475 -0.04754,-0.015503 -0.10542,-0.015503 -0.110588,0 -0.195337,0.03514 -0.08372,0.034106 -0.160197,0.089917 l -0.09509,-0.1291911 q 0.03927,-0.032039 0.08682,-0.059945 0.04858,-0.027905 0.10542,-0.048576 0.05684,-0.021704 0.120923,-0.034106 0.06511,-0.012402 0.137459,-0.012402 0.111621,0 0.195337,0.027905 0.08475,0.027905 0.141593,0.078548 0.05684,0.049609 0.08578,0.1188558 0.02894,0.068213 0.02894,0.1498616 z"
       style="font-style:normal;font-variant:normal;font-weight:normal;font-stretch:normal;font-size:2.11666656px;font-family:'Droid Sans';-inkscape-font-specification:'Droid Sans, Normal';font-variant-ligatures:normal;font-variant-caps:normal;font-variant-numeric:normal;font-feature-settings:normal;text-align:start;writing-mode:lr-tb;text-anchor:start;fill:#ececec;stroke-width:0.26458335"
       id="path864" />
  </g>
</svg>
